<svg xmlns="http://www.w3.org/2000/svg" viewBox="0 0 1920 1080" width="100%" height="100%">
  <defs>
    <!-- Analog Grain Filter -->
    <filter id="waveGrain" x="0%" y="0%" width="100%" height="100%">
      <feTurbulence type="fractalNoise" baseFrequency="0.75" numOctaves="3" stitchTiles="stitch" result="noise" />
      <feColorMatrix type="matrix" values="1 0 0 0 0  0 1 0 0 0  0 0 1 0 0  0 0 0 0.05 0" in="noise" result="grain" />
      <feComposite operator="in" in="grain" in2="SourceGraphic" />
    </filter>

    <!-- Silk Waveguide Cyan-Emerald Gradient -->
    <linearGradient id="silkRamp1" x1="0%" y1="0%" x2="100%" y2="100%">
      <stop offset="0%" stop-color="#00F0FF" stop-opacity="0.95" />
      <stop offset="45%" stop-color="#10B981" stop-opacity="0.85" />
      <stop offset="80%" stop-color="#064E3B" stop-opacity="0.6" />
      <stop offset="100%" stop-color="#08090D" stop-opacity="0" />
    </linearGradient>

    <!-- Chromatic Aberration Red/Blue Shifted Gradients -->
    <linearGradient id="silkRampCyan" x1="0%" y1="0%" x2="100%" y2="100%">
      <stop offset="0%" stop-color="#00F0FF" stop-opacity="0.9" />
      <stop offset="60%" stop-color="#3B82F6" stop-opacity="0.7" />
      <stop offset="100%" stop-color="#08090D" stop-opacity="0" />
    </linearGradient>

    <linearGradient id="silkRampEmerald" x1="0%" y1="0%" x2="100%" y2="100%">
      <stop offset="0%" stop-color="#34D399" stop-opacity="0.85" />
      <stop offset="50%" stop-color="#059669" stop-opacity="0.7" />
      <stop offset="100%" stop-color="#08090D" stop-opacity="0" />
    </linearGradient>
  </defs>

  <!-- Deep Obsidian Background -->
  <rect width="1920" height="1080" fill="#08090D" />

  <!-- Subtle SQLite B-Tree Memory Coordinates (Isometric Matrix Grid) -->
  <g opacity="0.12" stroke="#64748B" stroke-width="0.75" stroke-dasharray="3,6">
    <line x1="120" y1="200" x2="1800" y2="200" />
    <line x1="120" y1="400" x2="1800" y2="400" />
    <line x1="120" y1="600" x2="1800" y2="600" />
    <line x1="120" y1="800" x2="1800" y2="800" />
    <line x1="320" y1="100" x2="320" y2="980" />
    <line x1="720" y1="100" x2="720" y2="980" />
    <line x1="1120" y1="100" x2="1120" y2="980" />
    <line x1="1520" y1="100" x2="1520" y2="980" />
  </g>

  <!-- Chromatic Aberration Offset: Red/Blue Dispersion Layer -->
  <path d="M 120 780 C 450 780, 520 280, 950 280 C 1380 280, 1420 680, 1800 480" fill="none" stroke="#FF0055" stroke-width="42" stroke-linecap="round" opacity="0.15" transform="translate(-3, -2)" style="mix-blend-mode: screen;" />
  <path d="M 120 780 C 450 780, 520 280, 950 280 C 1380 280, 1420 680, 1800 480" fill="none" stroke="#00F0FF" stroke-width="42" stroke-linecap="round" opacity="0.25" transform="translate(3, 2)" style="mix-blend-mode: screen;" />

  <!-- Primary Fluid Silk Ribbons (Parametric Bézier Flow) -->
  <!-- Ribbon 1 (Deep Emerald Silk Core) -->
  <path d="M 80 820 C 400 820, 560 320, 980 320 C 1400 320, 1480 720, 1840 520 L 1840 580 C 1480 780, 1400 380, 980 380 C 560 380, 400 880, 80 880 Z" fill="url(#silkRampEmerald)" opacity="0.6" />

  <!-- Ribbon 2 (Main Luminous Waveguide) -->
  <path d="M 120 780 C 450 780, 520 280, 950 280 C 1380 280, 1420 680, 1800 480 L 1800 530 C 1420 730, 1380 330, 950 330 C 520 330, 450 830, 120 830 Z" fill="url(#silkRamp1)" opacity="0.85" />

  <!-- Ribbon 3 (Precision Cyan Leading Edge Line) -->
  <path d="M 120 780 C 450 780, 520 280, 950 280 C 1380 280, 1420 680, 1800 480" fill="none" stroke="#00F0FF" stroke-width="3" stroke-linecap="round" opacity="0.95" />
  <path d="M 120 780 C 450 780, 520 280, 950 280 C 1380 280, 1420 680, 1800 480" fill="none" stroke="#FFFFFF" stroke-width="1" stroke-linecap="round" opacity="0.75" />

  <!-- Secondary Echo Wave (Low Frequency Harmonic) -->
  <path d="M 220 880 C 580 880, 720 480, 1100 480 C 1480 480, 1600 780, 1880 680" fill="none" stroke="url(#silkRampCyan)" stroke-width="18" stroke-linecap="round" opacity="0.35" />

  <!-- SQLite B-Tree Vector Data Nodes -->
  <g>
    <!-- Root Node -->
    <circle cx="950" cy="280" r="7" fill="#08090D" stroke="#00F0FF" stroke-width="2.5" />
    <circle cx="950" cy="280" r="2.5" fill="#FFF" />
    <text x="950" y="255" text-anchor="middle" font-family="'JetBrains Mono', monospace" font-size="10" fill="#00F0FF" letter-spacing="1">ROOT_PAGE [0x01]</text>

    <!-- Branch Node A -->
    <circle cx="450" cy="780" r="5.5" fill="#08090D" stroke="#10B981" stroke-width="2" />
    <circle cx="450" cy="780" r="2" fill="#10B981" />
    <text x="450" y="810" text-anchor="middle" font-family="'JetBrains Mono', monospace" font-size="9" fill="#10B981" letter-spacing="1">PAGE_PTR_LEAF_L</text>

    <!-- Branch Node B -->
    <circle cx="1420" cy="680" r="5.5" fill="#08090D" stroke="#00F0FF" stroke-width="2" />
    <circle cx="1420" cy="680" r="2" fill="#00F0FF" />
    <text x="1420" y="710" text-anchor="middle" font-family="'JetBrains Mono', monospace" font-size="9" fill="#38BDF8" letter-spacing="1">PAGE_PTR_LEAF_R</text>

    <!-- Destination Node -->
    <circle cx="1800" cy="480" r="6" fill="#08090D" stroke="#34D399" stroke-width="2" />
    <circle cx="1800" cy="480" r="2" fill="#FFF" />
    <text x="1800" y="455" text-anchor="middle" font-family="'JetBrains Mono', monospace" font-size="9" fill="#34D399" letter-spacing="1">MCP_STREAM_EGRESS</text>
  </g>

  <!-- Editorial Metadata (Swiss Layout) -->
  <g font-family="-apple-system, BlinkMacSystemFont, 'Inter', sans-serif" fill="#64748B" font-size="11" letter-spacing="1.5">
    <text x="80" y="90" font-weight="600" fill="#E2E8F0" font-size="14" letter-spacing="2">PIECE B // THE CHROMATIC WAVEGUIDE</text>
    <text x="80" y="115">STRIPE PRESS × MODAL LABS PARAMETRIC FLUID</text>
    <text x="80" y="135">MATHEMATICAL BEZIER SPLINE // NO SPECULAR PLASTIC GLOSS</text>

    <text x="1680" y="90" text-anchor="end" font-family="'JetBrains Mono', monospace">VECTOR FIELD: CYLINDER NORMAL</text>
    <text x="1680" y="115" text-anchor="end" font-family="'JetBrains Mono', monospace">DISPERSION: 1.5PX MICRO-OFFSET</text>
    <text x="1680" y="135" text-anchor="end" font-family="'JetBrains Mono', monospace">ZERO AI-SLOP // PURE INTENT</text>
  </g>

  <!-- Grain Layer -->
  <rect width="1920" height="1080" fill="#FFF" opacity="0.04" filter="url(#waveGrain)" style="mix-blend-mode: overlay; pointer-events: none;" />
</svg>
